<svg version="1.1" viewBox="0 0 655 126" xmlns="http://www.w3.org/2000/svg" height="100">
	<defs>
		<filter id="alu">
			<!-- <feTurbulence baseFrequency="17" numOctaves="1" stitchTiles="stitch"/>
			<feDiffuseLighting out="tmp" surfaceScale=".16">
				<feDistantLight azimuth="10" elevation="65"/>
			</feDiffuseLighting>
			<feComposite in="tmp" in2="SourceAlpha" operator="in"/> -->
		</filter>
		<linearGradient id="gradient" x1="0" x2="1" y1="-0.01" y2="0.01">
			<stop offset="0%" stop-color="#e5e5e5"/>
			<stop offset="32%" stop-color="#f9f9f9"/>
			<stop offset="35%" stop-color="#c5c5c5"/>
			<stop offset="40%" stop-color="#e8e8e8"/>
			<stop offset="70%" stop-color="#e8e8e8"/>
			<stop offset="80%" stop-color="#c5c5c5"/>
			<stop offset="85%" stop-color="#f8f8f8"/>
			<stop offset="100%" stop-color="#e8e8e8"/>
    </linearGradient>
	</defs>
	<rect id="Chassis" fill="#e1e1e1" height="124" rx="6" ry="6" width="653" x="1" y="1"/>
	<rect id="Texture" fill="#e1e1e1" filter="url(#alu)" height="124" rx="6" ry="6" width="653" x="1" y="1"/>
	<rect id="Chassis_border" fill="none" height="124" rx="6" ry="6" stroke="#666" stroke-width="0.5" width="653" x="1" y="1"/>
	<!-- <g id="TRIMS" fill="#f8f8f8" stroke="#666" stroke-width="1"> -->
	<g id="TRIMS" fill="url(#gradient)" stroke="#666" stroke-width="0.2">
		<rect id="sfp_trim" height="77" ry="0" width="45" x="514" y="22" fill="#f2f2f2" stroke="#666"/>
		<rect id="ports_trim" height="40" ry="0" width="361" x="142" y="59" />
	</g>
	<g id="LABELS" fill="#444" font-family="sans-serif">
		<text x="48.5%" y="40%" font-size="10px">GbE</text>
		<text x="79.7%" y="13.5%" font-size="10px">SFP 9</text>
		<text x="79.4%" y="89%" font-size="10px">SFP 10</text>
		<text x="2.5%" y="75.6%" font-size="10px">Restore</text>
		<g id="port numbers" font-size="10px">
			<text x="25%" y="89%" font-size="10px">1</text>
			<text x="31.8%" y="89%" font-size="10px">2</text>
			<text x="38.6%" y="89%" font-size="10px">3</text>
			<text x="45.4%" y="89%" font-size="10px">4</text>
			<text x="52.2%" y="89%" font-size="10px">5</text>
			<text x="59%" y="89%" font-size="10px">6</text>
			<text x="65.8%" y="89%" font-size="10px">7</text>
			<text x="72.7%" y="89%" font-size="10px">8</text>
		</g>
		<g id="power icon" fill="none" stroke="#444" stroke-linejoin="round" stroke-miterlimit="10" stroke-width="1">
			<path d="m41.89 46.28c0.7 0.6 1.1 1.5 1.1 2.5 0 1.9-1.6 3.5-3.5 3.5s-3.5-1.6-3.5-3.5c0-1 0.4-1.9 1.1-2.6"/>
			<path d="m39.49 44.68v4"/>
		</g>
		<g id="Cisco logo">
			<g  stroke="#444" stroke-width="1.8" stroke-linecap="round">
				<line x1="586.3" x2="586.3" y1="86.68" y2="84.79" />
				<line x1="90.245%" x2="90.245%" y1="68.8%" y2="65.38%" />
				<line x1="596" x2="596" y1="88.38" y2="78.98" />
				<line x1="91.74%" x2="91.74%" y1="68.8%" y2="65.38%" />
				<line x1="605.8" x2="605.8" y1="86.68" y2="84.79" />
				<line x1="93.22%" x2="93.22%" y1="68.8%" y2="65.38%" />
				<line x1="615.5" x2="615.5" y1="88.38" y2="78.98" />
				<line x1="94.715%" x2="94.715%" y1="68.8%" y2="65.38%" />
				<line x1="625.3" x2="625.3" y1="86.68" y2="84.79" />
			</g>

			<path d="m594.5 94.38c-0.1 0-0.6-0.4-1.5-0.4-1.2 0-2 0.8-2 1.9s0.8 1.9 2 1.9c0.8 0 1.4-0.3 1.5-0.4v1.9c-0.2 0.1-0.8 0.3-1.6 0.3-2 0-3.8-1.4-3.8-3.7 0-2.1 1.6-3.7 3.8-3.7 0.8 0 1.5 0.2 1.6 0.3z"/>
			<path d="m596.9 92.38h1.8v7.1h-1.8z"/>
			<path d="m605.5 93.98s-0.8-0.2-1.4-0.2c-0.7 0-1.1 0.2-1.1 0.6s0.5 0.6 0.8 0.7l0.5 0.2c1.2 0.4 1.7 1.2 1.7 2 0 1.8-1.6 2.4-2.9 2.4-1 0-1.8-0.2-1.9-0.2v-1.6c0.2 0 0.9 0.3 1.7 0.3 0.9 0 1.3-0.3 1.3-0.7s-0.4-0.6-0.8-0.7c-0.1 0-0.3-0.1-0.4-0.1-1-0.3-1.8-0.9-1.8-2.1 0-1.3 1-2.2 2.6-2.2 0.9 0 1.7 0.2 1.7 0.2z"/>
			<path d="m613.1 94.38c-0.1 0-0.7-0.4-1.5-0.4-1.2 0-2 0.8-2 1.9s0.8 1.9 2 1.9c0.8 0 1.4-0.3 1.5-0.4v1.9c-0.2 0.1-0.8 0.3-1.6 0.3-2 0-3.8-1.4-3.8-3.7 0-2.1 1.6-3.7 3.8-3.7 0.8 0 1.5 0.2 1.6 0.3z"/>
			<path  d="m618.8 97.78c1.1 0 1.8-0.8 1.8-1.9 0-1-0.8-1.9-1.8-1.9v-1.8c2.2 0 3.7 1.6 3.7 3.7 0 2-1.6 3.7-3.7 3.7zm0-3.8c-1.1 0-1.8 0.8-1.8 1.9 0 1 0.8 1.9 1.8 1.9v1.8c-2.2 0-3.7-1.6-3.7-3.7 0-2 1.6-3.7 3.7-3.7z"/>
		</g>
	</g>
	<circle id="Power_LED" cx="55" cy="49" fill="#0f0" r="2" stroke="#050" stroke-width=".25" onclick="parent.LEDclick(id)"/>
	<circle id="Restore_LED" cx="55" cy="93" fill="#17202a" onclick="parent.LEDclick(id)" r="2" stroke="#444" stroke-width=".25"/>
	<g fill="#17202a" id="PORTS" stroke="#444" stroke-width="1" shape-rendering="crispEdges">
		<path id="1" d="M150 93 v-19 h6 v-6 h3 v-4 h15 v4 h3 v6 h6 v19z" onclick="parent.portClick(id)"/>
		<path id="2" d="M194 93 v-19 h6 v-6 h3 v-4 h15 v4 h3 v6 h6 v19z" onclick="parent.portClick(id)"/>
		<path id="3" d="M239 93 v-19 h6 v-6 h3 v-4 h15 v4 h3 v6 h6 v19z" onclick="parent.portClick(id)"/>
		<path id="4" d="M283 93 v-19 h6 v-6 h3 v-4 h15 v4 h3 v6 h6 v19z" onclick="parent.portClick(id)"/>
		<path id="5" d="M328 93 v-19 h6 v-6 h3 v-4 h15 v4 h3 v6 h6 v19z" onclick="parent.portClick(id)"/>
		<path id="6" d="M373 93 v-19 h6 v-6 h3 v-4 h15 v4 h3 v6 h6 v19z" onclick="parent.portClick(id)"/>
		<path id="7" d="M417 93 v-19 h6 v-6 h3 v-4 h15 v4 h3 v6 h6 v19z" onclick="parent.portClick(id)"/>
		<path id="8" d="M462 93 v-19 h6 v-6 h3 v-4 h15 v4 h3 v6 h6 v19z" onclick="parent.portClick(id)"/>
		<path id="9" d="M515 23 h43 v29 h-12 v2 h-18 v-2 h-13z" onclick="parent.portClick(id)"/>
		<path id="10" d="M515 98 h43 v-29 h-12 v-2 h-18 v2 h-13z" onclick="parent.portClick(id)"/>
	</g>
	<path id="LED_9" d="m530 65 h7 l-3.5 -8z" fill="#17202a" stroke="#444"/>
	<path id="LED_10" d="m537 56 h7 l-3.5 8z" fill="#17202a" stroke="#444"/>
	<g fill="#fc0" stroke="#f90" stroke-linejoin="round" pointer-events="none">
		<path id="POE_1" opacity="0" d="M166 72 h5 l-4 6 h3 l-9 10 3 -8 h-3z"/>
		<path id="POE_2" opacity="0" d="M210 72 h5 l-4 6 h3 l-9 10 3 -8 h-3z"/>
		<path id="POE_3" opacity="0" d="M254 72 h5 l-4 6 h3 l-9 10 3 -8 h-3z"/>
		<path id="POE_4" opacity="0" d="M300 72 h5 l-4 6 h3 l-9 10 3 -8 h-3z"/>
		<path id="POE_5" opacity="0" d="M344 72 h5 l-4 6 h3 l-9 10 3 -8 h-3z"/>
		<path id="POE_6" opacity="0" d="M389 72 h5 l-4 6 h3 l-9 10 3 -8 h-3z"/>
		<path id="POE_7" opacity="0" d="M433 72 h5 l-4 6 h3 l-9 10 3 -8 h-3z"/>
		<path id="POE_8" opacity="0" d="M477 72 h5 l-4 6 h3 l-9 10 3 -8 h-3z"/>
	</g>
</svg>
