<svg viewBox="0 0 488.68 488.68" height="64" xmlns="http://www.w3.org/2000/svg">
	<path d="M486 238.6l-36.3-30.5 23.73-41.02a7.5 7.5 0 00-3.93-10.8l-44.55-16.19 8.2-46.7a7.5 7.5 0 00-7.38-8.79h-47.41l-8.2-46.68a7.5 7.5 0 00-9.94-5.76l-44.55 16.2-23.72-41.04v474.04l23.72-41.03 44.55 16.19a7.5 7.5 0 009.95-5.75l8.18-46.7 47.42.01a7.5 7.5 0 007.39-8.8l-8.2-46.69 44.54-16.18a7.5 7.5 0 003.93-10.8l-23.73-41.03 36.3-30.5a7.5 7.5 0 000-11.48z" fill="#ff7a3c"/>
	<path d="M291.95 7.32a7.5 7.5 0 00-11.32-1.99l-36.29 30.51-36.3-30.51a7.5 7.5 0 00-11.31 1.99L173 48.35l-44.55-16.19a7.5 7.5 0 00-9.94 5.76l-8.2 46.69-47.4-.01a7.5 7.5 0 00-7.4 8.8l8.21 46.7-44.55 16.17a7.5 7.5 0 00-3.93 10.8l23.73 41.03-36.3 30.5a7.5 7.5 0 000 11.48l36.3 30.5-23.73 41.03a7.5 7.5 0 003.93 10.8l44.55 16.18-8.2 46.7a7.5 7.5 0 007.38 8.8l47.42-.02 8.18 46.7a7.5 7.5 0 009.95 5.75l44.55-16.2 23.72 41.04a7.5 7.5 0 0011.32 2l36.3-30.52 36.28 30.51a7.5 7.5 0 0011.32-1.99l31.46-237.03z" fill="#ff9a42"/>
	<path d="M244.34 70.84v347c95.82 0 173.5-77.68 173.5-173.5s-77.68-173.5-173.5-173.5z" fill="#ffba48"/>
	<path d="M387.84 244.34c0-95.82-64.25-173.5-143.5-173.5-95.82 0-173.5 77.68-173.5 173.5s77.68 173.5 173.5 173.5c79.25 0 143.5-77.68 143.5-173.5z" fill="#ffd185"/>
	<circle cx="344.34" cy="244.34" fill="#ff9a42" r="22.5"/>
	<circle cx="144.34" cy="244.34" fill="#ff9a42" r="22.5"/>
	<path d="M244.34 289.34a42.07 42.07 0 01-39.57-27.92 7.5 7.5 0 1114.14-5.03c3.81 10.74 14.03 17.95 25.43 17.95s21.62-7.21 25.44-17.95a7.5 7.5 0 0114.13 5.03 42.07 42.07 0 01-39.57 27.92z" fill="#ff7a3c"/>
	<g fill="#353535"><path d="M306.84 221.84a7.5 7.5 0 01-7.5-7.5 7.5 7.5 0 00-15 0 7.5 7.5 0 11-15 0c0-12.4 10.1-22.5 22.5-22.5s22.5 10.1 22.5 22.5a7.5 7.5 0 01-7.5 7.5zM211.84 221.84a7.5 7.5 0 01-7.5-7.5 7.5 7.5 0 00-15 0 7.5 7.5 0 11-15 0c0-12.4 10.1-22.5 22.5-22.5s22.5 10.1 22.5 22.5a7.5 7.5 0 01-7.5 7.5z"/>
</g></svg>